<svg width="1920" height="416" viewBox="0 0 1920 416" fill="none" xmlns="http://www.w3.org/2000/svg">
<g clip-path="url(#clip0_0_1)">
<mask id="path-1-outside-1_0_1" maskUnits="userSpaceOnUse" x="-166.392" y="4" width="2266" height="542" fill="black">
<rect fill="white" x="-166.392" y="4" width="2266" height="542"/>
<path d="M72 91.5C72 128.779 39.7645 159 -1.52588e-05 159C-39.7645 159 -72 128.779 -72 91.5C-72 54.2208 -39.7645 24 -1.52588e-05 24C39.7645 24 72 54.2208 72 91.5Z"/>
<path d="M118 151C118 178.614 95.6142 201 68 201C40.3857 201 18 178.614 18 151C18 123.386 40.3857 101 68 101C95.6142 101 118 123.386 118 151Z"/>
<path d="M152 156C152 174.778 136.778 190 118 190C99.2223 190 84 174.778 84 156C84 137.222 99.2223 122 118 122C136.778 122 152 137.222 152 156Z"/>
<path d="M202 201C202 225.853 172.899 246 137 246C101.101 246 72 225.853 72 201C72 176.147 101.101 156 137 156C172.899 156 202 176.147 202 201Z"/>
<path d="M299 257C299 278.539 273.928 296 243 296C212.072 296 187 278.539 187 257C187 235.461 212.072 218 243 218C273.928 218 299 235.461 299 257Z"/>
<path d="M408 277C408 296.33 377.108 312 339 312C300.892 312 270 296.33 270 277C270 257.67 300.892 242 339 242C377.108 242 408 257.67 408 277Z"/>
<path d="M486 311.5C486 339.39 462.047 362 432.5 362C402.953 362 379 339.39 379 311.5C379 283.61 402.953 261 432.5 261C462.047 261 486 283.61 486 311.5Z"/>
<path d="M339 264.5C339 281.897 326.912 296 312 296C297.088 296 285 281.897 285 264.5C285 247.103 297.088 233 312 233C326.912 233 339 247.103 339 264.5Z"/>
<path d="M234 243.5C234 272.495 219.449 296 201.5 296C183.551 296 169 272.495 169 243.5C169 214.505 183.551 191 201.5 191C219.449 191 234 214.505 234 243.5Z"/>
<path d="M218 177.5C218 199.868 203.225 218 185 218C166.775 218 152 199.868 152 177.5C152 155.132 166.775 137 185 137C203.225 137 218 155.132 218 177.5Z"/>
<path d="M97 109.5C97 127.449 86.031 142 72.5 142C58.969 142 48 127.449 48 109.5C48 91.5507 58.969 77 72.5 77C86.031 77 97 91.5507 97 109.5Z"/>
<path d="M521 281.5C521 302.211 504.882 319 485 319C465.118 319 449 302.211 449 281.5C449 260.789 465.118 244 485 244C504.882 244 521 260.789 521 281.5Z"/>
<path d="M575 300.5C575 319.002 556.868 334 534.5 334C512.132 334 494 319.002 494 300.5C494 281.998 512.132 267 534.5 267C556.868 267 575 281.998 575 300.5Z"/>
<path d="M633 301.5C633 325.524 612.405 345 587 345C561.595 345 541 325.524 541 301.5C541 277.476 561.595 258 587 258C612.405 258 633 277.476 633 301.5Z"/>
<path d="M702 312C702 339.614 679.614 362 652 362C624.386 362 602 339.614 602 312C602 284.386 624.386 262 652 262C679.614 262 702 284.386 702 312Z"/>
<path d="M741 282C741 309.614 718.614 332 691 332C663.386 332 641 309.614 641 282C641 254.386 663.386 232 691 232C718.614 232 741 254.386 741 282Z"/>
<path d="M758 308.5C758 310.433 757.776 312 757.5 312C757.224 312 757 310.433 757 308.5C757 306.567 757.224 305 757.5 305C757.776 305 758 306.567 758 308.5Z"/>
<path d="M786 328C786 355.614 763.614 378 736 378C708.386 378 686 355.614 686 328C686 300.386 708.386 278 736 278C763.614 278 786 300.386 786 328Z"/>
<path d="M858 315C858 342.614 835.614 365 808 365C780.386 365 758 342.614 758 315C758 287.386 780.386 265 808 265C835.614 265 858 287.386 858 315Z"/>
<path d="M921 281C921 308.614 898.614 331 871 331C843.386 331 821 308.614 821 281C821 253.386 843.386 231 871 231C898.614 231 921 253.386 921 281Z"/>
<path d="M986 303C986 330.614 963.614 353 936 353C908.386 353 886 330.614 886 303C886 275.386 908.386 253 936 253C963.614 253 986 275.386 986 303Z"/>
<path d="M1074 339.5C1074 363.524 1045.79 383 1011 383C976.206 383 948 363.524 948 339.5C948 315.476 976.206 296 1011 296C1045.79 296 1074 315.476 1074 339.5Z"/>
<path d="M1177 342C1177 372.376 1146.33 397 1108.5 397C1070.67 397 1040 372.376 1040 342C1040 311.624 1070.67 287 1108.5 287C1146.33 287 1177 311.624 1177 342Z"/>
<path d="M1297 358C1297 394.451 1258.72 424 1211.5 424C1164.28 424 1126 394.451 1126 358C1126 321.549 1164.28 292 1211.5 292C1258.72 292 1297 321.549 1297 358Z"/>
<path d="M1375 324C1375 356.585 1353.51 383 1327 383C1300.49 383 1279 356.585 1279 324C1279 291.415 1300.49 265 1327 265C1353.51 265 1375 291.415 1375 324Z"/>
<path d="M1508 299C1508 328.823 1476.88 353 1438.5 353C1400.12 353 1369 328.823 1369 299C1369 269.177 1400.12 245 1438.5 245C1476.88 245 1508 269.177 1508 299Z"/>
<path d="M1439 284C1439 308.301 1419.97 328 1396.5 328C1373.03 328 1354 308.301 1354 284C1354 259.699 1373.03 240 1396.5 240C1419.97 240 1439 259.699 1439 284Z"/>
<path d="M1497 237C1497 264.614 1474.61 287 1447 287C1419.39 287 1397 264.614 1397 237C1397 209.386 1419.39 187 1447 187C1474.61 187 1497 209.386 1497 237Z"/>
<path d="M1551 250.5C1551 267.345 1529.96 281 1504 281C1478.04 281 1457 267.345 1457 250.5C1457 233.655 1478.04 220 1504 220C1529.96 220 1551 233.655 1551 250.5Z"/>
<path d="M1625 246C1625 281.346 1596.12 310 1560.5 310C1524.88 310 1496 281.346 1496 246C1496 210.654 1524.88 182 1560.5 182C1596.12 182 1625 210.654 1625 246Z"/>
<path d="M1676 176.5C1676 200.524 1650.93 220 1620 220C1589.07 220 1564 200.524 1564 176.5C1564 152.476 1589.07 133 1620 133C1650.93 133 1676 152.476 1676 176.5Z"/>
<path d="M1701 158.5C1701 191.361 1683.09 218 1661 218C1638.91 218 1621 191.361 1621 158.5C1621 125.639 1638.91 99 1661 99C1683.09 99 1701 125.639 1701 158.5Z"/>
<path d="M1831 113.5C1831 156.302 1805.7 191 1774.5 191C1743.3 191 1718 156.302 1718 113.5C1718 70.6979 1743.3 36 1774.5 36C1805.7 36 1831 70.6979 1831 113.5Z"/>
<path d="M1775 133.5C1775 158.077 1751.05 178 1721.5 178C1691.95 178 1668 158.077 1668 133.5C1668 108.923 1691.95 89 1721.5 89C1751.05 89 1775 108.923 1775 133.5Z"/>
<path d="M1909 79C1909 108.823 1887.29 133 1860.5 133C1833.71 133 1812 108.823 1812 79C1812 49.1766 1833.71 25 1860.5 25C1887.29 25 1909 49.1766 1909 79Z"/>
<path d="M2011 70C2011 104.794 1977.42 133 1936 133C1894.58 133 1861 104.794 1861 70C1861 35.2061 1894.58 7 1936 7C1977.42 7 2011 35.2061 2011 70Z"/>
<path d="M348 262C348 289.614 325.614 312 298 312C270.386 312 248 289.614 248 262C248 234.386 270.386 212 298 212C325.614 212 348 234.386 348 262Z"/>
<path d="M275 229C275 256.614 252.614 279 225 279C197.386 279 175 256.614 175 229C175 201.386 197.386 179 225 179C252.614 179 275 201.386 275 229Z"/>
<path d="M122 122C122 149.614 99.6142 172 72 172C44.3857 172 22 149.614 22 122C22 94.3858 44.3857 72 72 72C99.6142 72 122 94.3858 122 122Z"/>
<path d="M900.389 502.174L-162.392 532.445L-73.6648 75.9823L900.389 502.174Z"/>
<path d="M361 308H566V358H361V308Z"/>
<path d="M1064.91 447.499L2006.99 28.9864L2095.17 482.629L1064.91 447.499Z"/>
<path d="M296 324H1551V543H296V324Z"/>
</mask>
<path d="M72 91.5C72 128.779 39.7645 159 -1.52588e-05 159C-39.7645 159 -72 128.779 -72 91.5C-72 54.2208 -39.7645 24 -1.52588e-05 24C39.7645 24 72 54.2208 72 91.5Z" fill="white"/>
<path d="M118 151C118 178.614 95.6142 201 68 201C40.3857 201 18 178.614 18 151C18 123.386 40.3857 101 68 101C95.6142 101 118 123.386 118 151Z" fill="white"/>
<path d="M152 156C152 174.778 136.778 190 118 190C99.2223 190 84 174.778 84 156C84 137.222 99.2223 122 118 122C136.778 122 152 137.222 152 156Z" fill="white"/>
<path d="M202 201C202 225.853 172.899 246 137 246C101.101 246 72 225.853 72 201C72 176.147 101.101 156 137 156C172.899 156 202 176.147 202 201Z" fill="white"/>
<path d="M299 257C299 278.539 273.928 296 243 296C212.072 296 187 278.539 187 257C187 235.461 212.072 218 243 218C273.928 218 299 235.461 299 257Z" fill="white"/>
<path d="M408 277C408 296.33 377.108 312 339 312C300.892 312 270 296.33 270 277C270 257.67 300.892 242 339 242C377.108 242 408 257.67 408 277Z" fill="white"/>
<path d="M486 311.5C486 339.39 462.047 362 432.5 362C402.953 362 379 339.39 379 311.5C379 283.61 402.953 261 432.5 261C462.047 261 486 283.61 486 311.5Z" fill="white"/>
<path d="M339 264.5C339 281.897 326.912 296 312 296C297.088 296 285 281.897 285 264.5C285 247.103 297.088 233 312 233C326.912 233 339 247.103 339 264.5Z" fill="white"/>
<path d="M234 243.5C234 272.495 219.449 296 201.5 296C183.551 296 169 272.495 169 243.5C169 214.505 183.551 191 201.5 191C219.449 191 234 214.505 234 243.5Z" fill="white"/>
<path d="M218 177.5C218 199.868 203.225 218 185 218C166.775 218 152 199.868 152 177.5C152 155.132 166.775 137 185 137C203.225 137 218 155.132 218 177.5Z" fill="white"/>
<path d="M97 109.5C97 127.449 86.031 142 72.5 142C58.969 142 48 127.449 48 109.5C48 91.5507 58.969 77 72.5 77C86.031 77 97 91.5507 97 109.5Z" fill="white"/>
<path d="M521 281.5C521 302.211 504.882 319 485 319C465.118 319 449 302.211 449 281.5C449 260.789 465.118 244 485 244C504.882 244 521 260.789 521 281.5Z" fill="white"/>
<path d="M575 300.5C575 319.002 556.868 334 534.5 334C512.132 334 494 319.002 494 300.5C494 281.998 512.132 267 534.5 267C556.868 267 575 281.998 575 300.5Z" fill="white"/>
<path d="M633 301.5C633 325.524 612.405 345 587 345C561.595 345 541 325.524 541 301.5C541 277.476 561.595 258 587 258C612.405 258 633 277.476 633 301.5Z" fill="white"/>
<path d="M702 312C702 339.614 679.614 362 652 362C624.386 362 602 339.614 602 312C602 284.386 624.386 262 652 262C679.614 262 702 284.386 702 312Z" fill="white"/>
<path d="M741 282C741 309.614 718.614 332 691 332C663.386 332 641 309.614 641 282C641 254.386 663.386 232 691 232C718.614 232 741 254.386 741 282Z" fill="white"/>
<path d="M758 308.5C758 310.433 757.776 312 757.5 312C757.224 312 757 310.433 757 308.5C757 306.567 757.224 305 757.5 305C757.776 305 758 306.567 758 308.5Z" fill="white"/>
<path d="M786 328C786 355.614 763.614 378 736 378C708.386 378 686 355.614 686 328C686 300.386 708.386 278 736 278C763.614 278 786 300.386 786 328Z" fill="white"/>
<path d="M858 315C858 342.614 835.614 365 808 365C780.386 365 758 342.614 758 315C758 287.386 780.386 265 808 265C835.614 265 858 287.386 858 315Z" fill="white"/>
<path d="M921 281C921 308.614 898.614 331 871 331C843.386 331 821 308.614 821 281C821 253.386 843.386 231 871 231C898.614 231 921 253.386 921 281Z" fill="white"/>
<path d="M986 303C986 330.614 963.614 353 936 353C908.386 353 886 330.614 886 303C886 275.386 908.386 253 936 253C963.614 253 986 275.386 986 303Z" fill="white"/>
<path d="M1074 339.5C1074 363.524 1045.79 383 1011 383C976.206 383 948 363.524 948 339.5C948 315.476 976.206 296 1011 296C1045.79 296 1074 315.476 1074 339.5Z" fill="white"/>
<path d="M1177 342C1177 372.376 1146.33 397 1108.5 397C1070.67 397 1040 372.376 1040 342C1040 311.624 1070.67 287 1108.5 287C1146.33 287 1177 311.624 1177 342Z" fill="white"/>
<path d="M1297 358C1297 394.451 1258.72 424 1211.5 424C1164.28 424 1126 394.451 1126 358C1126 321.549 1164.28 292 1211.5 292C1258.72 292 1297 321.549 1297 358Z" fill="white"/>
<path d="M1375 324C1375 356.585 1353.51 383 1327 383C1300.49 383 1279 356.585 1279 324C1279 291.415 1300.49 265 1327 265C1353.51 265 1375 291.415 1375 324Z" fill="white"/>
<path d="M1508 299C1508 328.823 1476.88 353 1438.5 353C1400.12 353 1369 328.823 1369 299C1369 269.177 1400.12 245 1438.5 245C1476.88 245 1508 269.177 1508 299Z" fill="white"/>
<path d="M1439 284C1439 308.301 1419.97 328 1396.5 328C1373.03 328 1354 308.301 1354 284C1354 259.699 1373.03 240 1396.5 240C1419.97 240 1439 259.699 1439 284Z" fill="white"/>
<path d="M1497 237C1497 264.614 1474.61 287 1447 287C1419.39 287 1397 264.614 1397 237C1397 209.386 1419.39 187 1447 187C1474.61 187 1497 209.386 1497 237Z" fill="white"/>
<path d="M1551 250.5C1551 267.345 1529.96 281 1504 281C1478.04 281 1457 267.345 1457 250.5C1457 233.655 1478.04 220 1504 220C1529.96 220 1551 233.655 1551 250.5Z" fill="white"/>
<path d="M1625 246C1625 281.346 1596.12 310 1560.5 310C1524.88 310 1496 281.346 1496 246C1496 210.654 1524.88 182 1560.5 182C1596.12 182 1625 210.654 1625 246Z" fill="white"/>
<path d="M1676 176.5C1676 200.524 1650.93 220 1620 220C1589.07 220 1564 200.524 1564 176.5C1564 152.476 1589.07 133 1620 133C1650.93 133 1676 152.476 1676 176.5Z" fill="white"/>
<path d="M1701 158.5C1701 191.361 1683.09 218 1661 218C1638.91 218 1621 191.361 1621 158.5C1621 125.639 1638.91 99 1661 99C1683.09 99 1701 125.639 1701 158.5Z" fill="white"/>
<path d="M1831 113.5C1831 156.302 1805.7 191 1774.5 191C1743.3 191 1718 156.302 1718 113.5C1718 70.6979 1743.3 36 1774.5 36C1805.7 36 1831 70.6979 1831 113.5Z" fill="white"/>
<path d="M1775 133.5C1775 158.077 1751.05 178 1721.5 178C1691.95 178 1668 158.077 1668 133.5C1668 108.923 1691.95 89 1721.5 89C1751.05 89 1775 108.923 1775 133.5Z" fill="white"/>
<path d="M1909 79C1909 108.823 1887.29 133 1860.5 133C1833.71 133 1812 108.823 1812 79C1812 49.1766 1833.71 25 1860.5 25C1887.29 25 1909 49.1766 1909 79Z" fill="white"/>
<path d="M2011 70C2011 104.794 1977.42 133 1936 133C1894.58 133 1861 104.794 1861 70C1861 35.2061 1894.58 7 1936 7C1977.42 7 2011 35.2061 2011 70Z" fill="white"/>
<path d="M348 262C348 289.614 325.614 312 298 312C270.386 312 248 289.614 248 262C248 234.386 270.386 212 298 212C325.614 212 348 234.386 348 262Z" fill="white"/>
<path d="M275 229C275 256.614 252.614 279 225 279C197.386 279 175 256.614 175 229C175 201.386 197.386 179 225 179C252.614 179 275 201.386 275 229Z" fill="white"/>
<path d="M122 122C122 149.614 99.6142 172 72 172C44.3857 172 22 149.614 22 122C22 94.3858 44.3857 72 72 72C99.6142 72 122 94.3858 122 122Z" fill="white"/>
<path d="M900.389 502.174L-162.392 532.445L-73.6648 75.9823L900.389 502.174Z" fill="white"/>
<path d="M361 308H566V358H361V308Z" fill="white"/>
<path d="M1064.91 447.499L2006.99 28.9864L2095.17 482.629L1064.91 447.499Z" fill="white"/>
<path d="M296 324H1551V543H296V324Z" fill="white"/>
<path d="M72 91.5C72 128.779 39.7645 159 -1.52588e-05 159C-39.7645 159 -72 128.779 -72 91.5C-72 54.2208 -39.7645 24 -1.52588e-05 24C39.7645 24 72 54.2208 72 91.5Z" stroke="black" stroke-opacity="0.26" stroke-width="6" mask="url(#path-1-outside-1_0_1)"/>
<path d="M118 151C118 178.614 95.6142 201 68 201C40.3857 201 18 178.614 18 151C18 123.386 40.3857 101 68 101C95.6142 101 118 123.386 118 151Z" stroke="black" stroke-opacity="0.26" stroke-width="6" mask="url(#path-1-outside-1_0_1)"/>
<path d="M152 156C152 174.778 136.778 190 118 190C99.2223 190 84 174.778 84 156C84 137.222 99.2223 122 118 122C136.778 122 152 137.222 152 156Z" stroke="black" stroke-opacity="0.26" stroke-width="6" mask="url(#path-1-outside-1_0_1)"/>
<path d="M202 201C202 225.853 172.899 246 137 246C101.101 246 72 225.853 72 201C72 176.147 101.101 156 137 156C172.899 156 202 176.147 202 201Z" stroke="black" stroke-opacity="0.26" stroke-width="6" mask="url(#path-1-outside-1_0_1)"/>
<path d="M299 257C299 278.539 273.928 296 243 296C212.072 296 187 278.539 187 257C187 235.461 212.072 218 243 218C273.928 218 299 235.461 299 257Z" stroke="black" stroke-opacity="0.26" stroke-width="6" mask="url(#path-1-outside-1_0_1)"/>
<path d="M408 277C408 296.33 377.108 312 339 312C300.892 312 270 296.33 270 277C270 257.67 300.892 242 339 242C377.108 242 408 257.67 408 277Z" stroke="black" stroke-opacity="0.26" stroke-width="6" mask="url(#path-1-outside-1_0_1)"/>
<path d="M486 311.5C486 339.39 462.047 362 432.5 362C402.953 362 379 339.39 379 311.5C379 283.61 402.953 261 432.5 261C462.047 261 486 283.61 486 311.5Z" stroke="black" stroke-opacity="0.26" stroke-width="6" mask="url(#path-1-outside-1_0_1)"/>
<path d="M339 264.5C339 281.897 326.912 296 312 296C297.088 296 285 281.897 285 264.5C285 247.103 297.088 233 312 233C326.912 233 339 247.103 339 264.5Z" stroke="black" stroke-opacity="0.26" stroke-width="6" mask="url(#path-1-outside-1_0_1)"/>
<path d="M234 243.5C234 272.495 219.449 296 201.5 296C183.551 296 169 272.495 169 243.5C169 214.505 183.551 191 201.5 191C219.449 191 234 214.505 234 243.5Z" stroke="black" stroke-opacity="0.26" stroke-width="6" mask="url(#path-1-outside-1_0_1)"/>
<path d="M218 177.5C218 199.868 203.225 218 185 218C166.775 218 152 199.868 152 177.5C152 155.132 166.775 137 185 137C203.225 137 218 155.132 218 177.5Z" stroke="black" stroke-opacity="0.26" stroke-width="6" mask="url(#path-1-outside-1_0_1)"/>
<path d="M97 109.5C97 127.449 86.031 142 72.5 142C58.969 142 48 127.449 48 109.5C48 91.5507 58.969 77 72.5 77C86.031 77 97 91.5507 97 109.5Z" stroke="black" stroke-opacity="0.26" stroke-width="6" mask="url(#path-1-outside-1_0_1)"/>
<path d="M521 281.5C521 302.211 504.882 319 485 319C465.118 319 449 302.211 449 281.5C449 260.789 465.118 244 485 244C504.882 244 521 260.789 521 281.5Z" stroke="black" stroke-opacity="0.26" stroke-width="6" mask="url(#path-1-outside-1_0_1)"/>
<path d="M575 300.5C575 319.002 556.868 334 534.5 334C512.132 334 494 319.002 494 300.5C494 281.998 512.132 267 534.5 267C556.868 267 575 281.998 575 300.5Z" stroke="black" stroke-opacity="0.26" stroke-width="6" mask="url(#path-1-outside-1_0_1)"/>
<path d="M633 301.5C633 325.524 612.405 345 587 345C561.595 345 541 325.524 541 301.5C541 277.476 561.595 258 587 258C612.405 258 633 277.476 633 301.5Z" stroke="black" stroke-opacity="0.26" stroke-width="6" mask="url(#path-1-outside-1_0_1)"/>
<path d="M702 312C702 339.614 679.614 362 652 362C624.386 362 602 339.614 602 312C602 284.386 624.386 262 652 262C679.614 262 702 284.386 702 312Z" stroke="black" stroke-opacity="0.26" stroke-width="6" mask="url(#path-1-outside-1_0_1)"/>
<path d="M741 282C741 309.614 718.614 332 691 332C663.386 332 641 309.614 641 282C641 254.386 663.386 232 691 232C718.614 232 741 254.386 741 282Z" stroke="black" stroke-opacity="0.26" stroke-width="6" mask="url(#path-1-outside-1_0_1)"/>
<path d="M758 308.5C758 310.433 757.776 312 757.5 312C757.224 312 757 310.433 757 308.5C757 306.567 757.224 305 757.5 305C757.776 305 758 306.567 758 308.5Z" stroke="black" stroke-opacity="0.26" stroke-width="6" mask="url(#path-1-outside-1_0_1)"/>
<path d="M786 328C786 355.614 763.614 378 736 378C708.386 378 686 355.614 686 328C686 300.386 708.386 278 736 278C763.614 278 786 300.386 786 328Z" stroke="black" stroke-opacity="0.26" stroke-width="6" mask="url(#path-1-outside-1_0_1)"/>
<path d="M858 315C858 342.614 835.614 365 808 365C780.386 365 758 342.614 758 315C758 287.386 780.386 265 808 265C835.614 265 858 287.386 858 315Z" stroke="black" stroke-opacity="0.26" stroke-width="6" mask="url(#path-1-outside-1_0_1)"/>
<path d="M921 281C921 308.614 898.614 331 871 331C843.386 331 821 308.614 821 281C821 253.386 843.386 231 871 231C898.614 231 921 253.386 921 281Z" stroke="black" stroke-opacity="0.26" stroke-width="6" mask="url(#path-1-outside-1_0_1)"/>
<path d="M986 303C986 330.614 963.614 353 936 353C908.386 353 886 330.614 886 303C886 275.386 908.386 253 936 253C963.614 253 986 275.386 986 303Z" stroke="black" stroke-opacity="0.26" stroke-width="6" mask="url(#path-1-outside-1_0_1)"/>
<path d="M1074 339.5C1074 363.524 1045.79 383 1011 383C976.206 383 948 363.524 948 339.5C948 315.476 976.206 296 1011 296C1045.79 296 1074 315.476 1074 339.5Z" stroke="black" stroke-opacity="0.26" stroke-width="6" mask="url(#path-1-outside-1_0_1)"/>
<path d="M1177 342C1177 372.376 1146.33 397 1108.5 397C1070.67 397 1040 372.376 1040 342C1040 311.624 1070.67 287 1108.5 287C1146.33 287 1177 311.624 1177 342Z" stroke="black" stroke-opacity="0.26" stroke-width="6" mask="url(#path-1-outside-1_0_1)"/>
<path d="M1297 358C1297 394.451 1258.72 424 1211.5 424C1164.28 424 1126 394.451 1126 358C1126 321.549 1164.28 292 1211.5 292C1258.72 292 1297 321.549 1297 358Z" stroke="black" stroke-opacity="0.26" stroke-width="6" mask="url(#path-1-outside-1_0_1)"/>
<path d="M1375 324C1375 356.585 1353.51 383 1327 383C1300.49 383 1279 356.585 1279 324C1279 291.415 1300.49 265 1327 265C1353.51 265 1375 291.415 1375 324Z" stroke="black" stroke-opacity="0.26" stroke-width="6" mask="url(#path-1-outside-1_0_1)"/>
<path d="M1508 299C1508 328.823 1476.88 353 1438.5 353C1400.12 353 1369 328.823 1369 299C1369 269.177 1400.12 245 1438.5 245C1476.88 245 1508 269.177 1508 299Z" stroke="black" stroke-opacity="0.26" stroke-width="6" mask="url(#path-1-outside-1_0_1)"/>
<path d="M1439 284C1439 308.301 1419.97 328 1396.5 328C1373.03 328 1354 308.301 1354 284C1354 259.699 1373.03 240 1396.5 240C1419.97 240 1439 259.699 1439 284Z" stroke="black" stroke-opacity="0.26" stroke-width="6" mask="url(#path-1-outside-1_0_1)"/>
<path d="M1497 237C1497 264.614 1474.61 287 1447 287C1419.39 287 1397 264.614 1397 237C1397 209.386 1419.39 187 1447 187C1474.61 187 1497 209.386 1497 237Z" stroke="black" stroke-opacity="0.26" stroke-width="6" mask="url(#path-1-outside-1_0_1)"/>
<path d="M1551 250.5C1551 267.345 1529.96 281 1504 281C1478.04 281 1457 267.345 1457 250.5C1457 233.655 1478.04 220 1504 220C1529.96 220 1551 233.655 1551 250.5Z" stroke="black" stroke-opacity="0.26" stroke-width="6" mask="url(#path-1-outside-1_0_1)"/>
<path d="M1625 246C1625 281.346 1596.12 310 1560.5 310C1524.88 310 1496 281.346 1496 246C1496 210.654 1524.88 182 1560.5 182C1596.12 182 1625 210.654 1625 246Z" stroke="black" stroke-opacity="0.26" stroke-width="6" mask="url(#path-1-outside-1_0_1)"/>
<path d="M1676 176.5C1676 200.524 1650.93 220 1620 220C1589.07 220 1564 200.524 1564 176.5C1564 152.476 1589.07 133 1620 133C1650.93 133 1676 152.476 1676 176.5Z" stroke="black" stroke-opacity="0.26" stroke-width="6" mask="url(#path-1-outside-1_0_1)"/>
<path d="M1701 158.5C1701 191.361 1683.09 218 1661 218C1638.91 218 1621 191.361 1621 158.5C1621 125.639 1638.91 99 1661 99C1683.09 99 1701 125.639 1701 158.5Z" stroke="black" stroke-opacity="0.26" stroke-width="6" mask="url(#path-1-outside-1_0_1)"/>
<path d="M1831 113.5C1831 156.302 1805.7 191 1774.5 191C1743.3 191 1718 156.302 1718 113.5C1718 70.6979 1743.3 36 1774.5 36C1805.7 36 1831 70.6979 1831 113.5Z" stroke="black" stroke-opacity="0.26" stroke-width="6" mask="url(#path-1-outside-1_0_1)"/>
<path d="M1775 133.5C1775 158.077 1751.05 178 1721.5 178C1691.95 178 1668 158.077 1668 133.5C1668 108.923 1691.95 89 1721.5 89C1751.05 89 1775 108.923 1775 133.5Z" stroke="black" stroke-opacity="0.26" stroke-width="6" mask="url(#path-1-outside-1_0_1)"/>
<path d="M1909 79C1909 108.823 1887.29 133 1860.5 133C1833.71 133 1812 108.823 1812 79C1812 49.1766 1833.71 25 1860.5 25C1887.29 25 1909 49.1766 1909 79Z" stroke="black" stroke-opacity="0.26" stroke-width="6" mask="url(#path-1-outside-1_0_1)"/>
<path d="M2011 70C2011 104.794 1977.42 133 1936 133C1894.58 133 1861 104.794 1861 70C1861 35.2061 1894.58 7 1936 7C1977.42 7 2011 35.2061 2011 70Z" stroke="black" stroke-opacity="0.26" stroke-width="6" mask="url(#path-1-outside-1_0_1)"/>
<path d="M348 262C348 289.614 325.614 312 298 312C270.386 312 248 289.614 248 262C248 234.386 270.386 212 298 212C325.614 212 348 234.386 348 262Z" stroke="black" stroke-opacity="0.26" stroke-width="6" mask="url(#path-1-outside-1_0_1)"/>
<path d="M275 229C275 256.614 252.614 279 225 279C197.386 279 175 256.614 175 229C175 201.386 197.386 179 225 179C252.614 179 275 201.386 275 229Z" stroke="black" stroke-opacity="0.26" stroke-width="6" mask="url(#path-1-outside-1_0_1)"/>
<path d="M122 122C122 149.614 99.6142 172 72 172C44.3857 172 22 149.614 22 122C22 94.3858 44.3857 72 72 72C99.6142 72 122 94.3858 122 122Z" stroke="black" stroke-opacity="0.26" stroke-width="6" mask="url(#path-1-outside-1_0_1)"/>
<path d="M900.389 502.174L-162.392 532.445L-73.6648 75.9823L900.389 502.174Z" stroke="black" stroke-opacity="0.26" stroke-width="6" mask="url(#path-1-outside-1_0_1)"/>
<path d="M361 308H566V358H361V308Z" stroke="black" stroke-opacity="0.26" stroke-width="6" mask="url(#path-1-outside-1_0_1)"/>
<path d="M1064.91 447.499L2006.99 28.9864L2095.17 482.629L1064.91 447.499Z" stroke="black" stroke-opacity="0.26" stroke-width="6" mask="url(#path-1-outside-1_0_1)"/>
<path d="M296 324H1551V543H296V324Z" stroke="black" stroke-opacity="0.26" stroke-width="6" mask="url(#path-1-outside-1_0_1)"/>
</g>
<defs>
<clipPath id="clip0_0_1">
<rect width="1920" height="416" fill="white"/>
</clipPath>
</defs>
</svg>
