<svg width="1920" height="152" viewBox="0 0 1920 152" fill="none" xmlns="http://www.w3.org/2000/svg">
<mask id="path-1-outside-1_347_100" maskUnits="userSpaceOnUse" x="-54" y="-65" width="2009" height="217" fill="black">
<rect fill="white" x="-54" y="-65" width="2009" height="217"/>
<path d="M335 0C335 27.6142 312.614 50 285 50C257.386 50 235 27.6142 235 0C235 -27.6142 257.386 -50 285 -50C312.614 -50 335 -27.6142 335 0Z"/>
<path d="M405 36C405 63.6142 382.614 86 355 86C327.386 86 305 63.6142 305 36C305 8.38576 327.386 -14 355 -14C382.614 -14 405 8.38576 405 36Z"/>
<path d="M473 6C473 33.6142 450.614 56 423 56C395.386 56 373 33.6142 373 6C373 -21.6142 395.386 -44 423 -44C450.614 -44 473 -21.6142 473 6Z"/>
<path d="M552 21C552 48.6142 529.614 71 502 71C474.386 71 452 48.6142 452 21C452 -6.61424 474.386 -29 502 -29C529.614 -29 552 -6.61424 552 21Z"/>
<path d="M627 0C627 27.6142 604.614 50 577 50C549.386 50 527 27.6142 527 0C527 -27.6142 549.386 -50 577 -50C604.614 -50 627 -27.6142 627 0Z"/>
<path d="M699 6C699 33.6142 676.614 56 649 56C621.386 56 599 33.6142 599 6C599 -21.6142 621.386 -44 649 -44C676.614 -44 699 -21.6142 699 6Z"/>
<path d="M765 21C765 48.6142 742.614 71 715 71C687.386 71 665 48.6142 665 21C665 -6.61424 687.386 -29 715 -29C742.614 -29 765 -6.61424 765 21Z"/>
<path d="M826 16C826 43.6142 803.614 66 776 66C748.386 66 726 43.6142 726 16C726 -11.6142 748.386 -34 776 -34C803.614 -34 826 -11.6142 826 16Z"/>
<path d="M786 15C786 23.2843 783.761 30 781 30C778.239 30 776 23.2843 776 15C776 6.71573 778.239 0 781 0C783.761 0 786 6.71573 786 15Z"/>
<path d="M854 5C854 18.8071 841.24 30 825.5 30C809.76 30 797 18.8071 797 5C797 -8.80712 809.76 -20 825.5 -20C841.24 -20 854 -8.80712 854 5Z"/>
<path d="M981 36C981 63.6142 958.614 86 931 86C903.386 86 881 63.6142 881 36C881 8.38576 903.386 -14 931 -14C958.614 -14 981 8.38576 981 36Z"/>
<path d="M1036 58C1036 85.6142 1013.61 108 986 108C958.386 108 936 85.6142 936 58C936 30.3858 958.386 8 986 8C1013.61 8 1036 30.3858 1036 58Z"/>
<path d="M1085 62C1085 89.6142 1062.61 112 1035 112C1007.39 112 985 89.6142 985 62C985 34.3858 1007.39 12 1035 12C1062.61 12 1085 34.3858 1085 62Z"/>
<path d="M1132 21C1132 48.6142 1109.61 71 1082 71C1054.39 71 1032 48.6142 1032 21C1032 -6.61424 1054.39 -29 1082 -29C1109.61 -29 1132 -6.61424 1132 21Z"/>
<path d="M1181 40C1181 67.6142 1158.61 90 1131 90C1103.39 90 1081 67.6142 1081 40C1081 12.3858 1103.39 -10 1131 -10C1158.61 -10 1181 12.3858 1181 40Z"/>
<path d="M1235 99C1235 126.614 1212.61 149 1185 149C1157.39 149 1135 126.614 1135 99C1135 71.3858 1157.39 49 1185 49C1212.61 49 1235 71.3858 1235 99Z"/>
<path d="M1302 85C1302 112.614 1279.61 135 1252 135C1224.39 135 1202 112.614 1202 85C1202 57.3858 1224.39 35 1252 35C1279.61 35 1302 57.3858 1302 85Z"/>
<path d="M1243 33C1243 60.6142 1220.61 83 1193 83C1165.39 83 1143 60.6142 1143 33C1143 5.38576 1165.39 -17 1193 -17C1220.61 -17 1243 5.38576 1243 33Z"/>
<path d="M1342 26C1342 53.6142 1319.61 76 1292 76C1264.39 76 1242 53.6142 1242 26C1242 -1.61424 1264.39 -24 1292 -24C1319.61 -24 1342 -1.61424 1342 26Z"/>
<path d="M1440 30C1440 57.6142 1417.61 80 1390 80C1362.39 80 1340 57.6142 1340 30C1340 2.38576 1362.39 -20 1390 -20C1417.61 -20 1440 2.38576 1440 30Z"/>
<path d="M1386 18C1386 45.6142 1363.61 68 1336 68C1308.39 68 1286 45.6142 1286 18C1286 -9.61424 1308.39 -32 1336 -32C1363.61 -32 1386 -9.61424 1386 18Z"/>
<path d="M1514 43C1514 70.6142 1491.61 93 1464 93C1436.39 93 1414 70.6142 1414 43C1414 15.3858 1436.39 -7 1464 -7C1491.61 -7 1514 15.3858 1514 43Z"/>
<path d="M1596 26C1596 53.6142 1573.61 76 1546 76C1518.39 76 1496 53.6142 1496 26C1496 -1.61424 1518.39 -24 1546 -24C1573.61 -24 1596 -1.61424 1596 26Z"/>
<path d="M249 43C249 70.6142 226.614 93 199 93C171.386 93 149 70.6142 149 43C149 15.3858 171.386 -7 199 -7C226.614 -7 249 15.3858 249 43Z"/>
<path d="M136 33C136 60.6142 113.614 83 86 83C58.3858 83 36 60.6142 36 33C36 5.38576 58.3858 -17 86 -17C113.614 -17 136 5.38576 136 33Z"/>
<path d="M174 21C174 48.6142 151.614 71 124 71C96.3858 71 74 48.6142 74 21C74 -6.61424 96.3858 -29 124 -29C151.614 -29 174 -6.61424 174 21Z"/>
<path d="M1049 -7C1049 20.6142 1026.61 43 999 43C971.386 43 949 20.6142 949 -7C949 -34.6142 971.386 -57 999 -57C1026.61 -57 1049 -34.6142 1049 -7Z"/>
<path d="M1650 28C1650 55.6142 1627.61 78 1600 78C1572.39 78 1550 55.6142 1550 28C1550 0.385763 1572.39 -22 1600 -22C1627.61 -22 1650 0.385763 1650 28Z"/>
<path d="M1711 18C1711 45.6142 1688.61 68 1661 68C1633.39 68 1611 45.6142 1611 18C1611 -9.61424 1633.39 -32 1661 -32C1688.61 -32 1711 -9.61424 1711 18Z"/>
<path d="M1781 6C1781 33.6142 1758.61 56 1731 56C1703.39 56 1681 33.6142 1681 6C1681 -21.6142 1703.39 -44 1731 -44C1758.61 -44 1781 -21.6142 1781 6Z"/>
<path d="M1902 36C1902 63.6142 1879.61 86 1852 86C1824.39 86 1802 63.6142 1802 36C1802 8.38576 1824.39 -14 1852 -14C1879.61 -14 1902 8.38576 1902 36Z"/>
<path d="M1948 28C1948 55.6142 1925.61 78 1898 78C1870.39 78 1848 55.6142 1848 28C1848 0.385763 1870.39 -22 1898 -22C1925.61 -22 1948 0.385763 1948 28Z"/>
<path d="M1845 -7C1845 20.6142 1822.61 43 1795 43C1767.39 43 1745 20.6142 1745 -7C1745 -34.6142 1767.39 -57 1795 -57C1822.61 -57 1845 -34.6142 1845 -7Z"/>
<path d="M49 12C49 39.6142 26.6142 62 -1 62C-28.6142 62 -51 39.6142 -51 12C-51 -15.6142 -28.6142 -38 -1 -38C26.6142 -38 49 -15.6142 49 12Z"/>
<path d="M1280 -2C1280 25.6142 1257.61 48 1230 48C1202.39 48 1180 25.6142 1180 -2C1180 -29.6142 1202.39 -52 1230 -52C1257.61 -52 1280 -29.6142 1280 -2Z"/>
<path d="M907 0C907 27.6142 884.614 50 857 50C829.386 50 807 27.6142 807 0C807 -27.6142 829.386 -50 857 -50C884.614 -50 907 -27.6142 907 0Z"/>
<path d="M56 0.5C56 16.7924 34.5097 30 8 30C-18.5097 30 -40 16.7924 -40 0.5C-40 -15.7924 -18.5097 -29 8 -29C34.5097 -29 56 -15.7924 56 0.5Z"/>
<path d="M108 -11.5C108 11.4198 91.4345 30 71 30C50.5655 30 34 11.4198 34 -11.5C34 -34.4198 50.5655 -53 71 -53C91.4345 -53 108 -34.4198 108 -11.5Z"/>
<path d="M192 -12C192 15.6142 169.614 38 142 38C114.386 38 92 15.6142 92 -12C92 -39.6142 114.386 -62 142 -62C169.614 -62 192 -39.6142 192 -12Z"/>
<path d="M261 -7C261 20.6142 238.614 43 211 43C183.386 43 161 20.6142 161 -7C161 -34.6142 183.386 -57 211 -57C238.614 -57 261 -34.6142 261 -7Z"/>
<path d="M8 -12H1952V12H8V-12Z"/>
</mask>
<path d="M335 0C335 27.6142 312.614 50 285 50C257.386 50 235 27.6142 235 0C235 -27.6142 257.386 -50 285 -50C312.614 -50 335 -27.6142 335 0Z" fill="white"/>
<path d="M405 36C405 63.6142 382.614 86 355 86C327.386 86 305 63.6142 305 36C305 8.38576 327.386 -14 355 -14C382.614 -14 405 8.38576 405 36Z" fill="white"/>
<path d="M473 6C473 33.6142 450.614 56 423 56C395.386 56 373 33.6142 373 6C373 -21.6142 395.386 -44 423 -44C450.614 -44 473 -21.6142 473 6Z" fill="white"/>
<path d="M552 21C552 48.6142 529.614 71 502 71C474.386 71 452 48.6142 452 21C452 -6.61424 474.386 -29 502 -29C529.614 -29 552 -6.61424 552 21Z" fill="white"/>
<path d="M627 0C627 27.6142 604.614 50 577 50C549.386 50 527 27.6142 527 0C527 -27.6142 549.386 -50 577 -50C604.614 -50 627 -27.6142 627 0Z" fill="white"/>
<path d="M699 6C699 33.6142 676.614 56 649 56C621.386 56 599 33.6142 599 6C599 -21.6142 621.386 -44 649 -44C676.614 -44 699 -21.6142 699 6Z" fill="white"/>
<path d="M765 21C765 48.6142 742.614 71 715 71C687.386 71 665 48.6142 665 21C665 -6.61424 687.386 -29 715 -29C742.614 -29 765 -6.61424 765 21Z" fill="white"/>
<path d="M826 16C826 43.6142 803.614 66 776 66C748.386 66 726 43.6142 726 16C726 -11.6142 748.386 -34 776 -34C803.614 -34 826 -11.6142 826 16Z" fill="white"/>
<path d="M786 15C786 23.2843 783.761 30 781 30C778.239 30 776 23.2843 776 15C776 6.71573 778.239 0 781 0C783.761 0 786 6.71573 786 15Z" fill="white"/>
<path d="M854 5C854 18.8071 841.24 30 825.5 30C809.76 30 797 18.8071 797 5C797 -8.80712 809.76 -20 825.5 -20C841.24 -20 854 -8.80712 854 5Z" fill="white"/>
<path d="M981 36C981 63.6142 958.614 86 931 86C903.386 86 881 63.6142 881 36C881 8.38576 903.386 -14 931 -14C958.614 -14 981 8.38576 981 36Z" fill="white"/>
<path d="M1036 58C1036 85.6142 1013.61 108 986 108C958.386 108 936 85.6142 936 58C936 30.3858 958.386 8 986 8C1013.61 8 1036 30.3858 1036 58Z" fill="white"/>
<path d="M1085 62C1085 89.6142 1062.61 112 1035 112C1007.39 112 985 89.6142 985 62C985 34.3858 1007.39 12 1035 12C1062.61 12 1085 34.3858 1085 62Z" fill="white"/>
<path d="M1132 21C1132 48.6142 1109.61 71 1082 71C1054.39 71 1032 48.6142 1032 21C1032 -6.61424 1054.39 -29 1082 -29C1109.61 -29 1132 -6.61424 1132 21Z" fill="white"/>
<path d="M1181 40C1181 67.6142 1158.61 90 1131 90C1103.39 90 1081 67.6142 1081 40C1081 12.3858 1103.39 -10 1131 -10C1158.61 -10 1181 12.3858 1181 40Z" fill="white"/>
<path d="M1235 99C1235 126.614 1212.61 149 1185 149C1157.39 149 1135 126.614 1135 99C1135 71.3858 1157.39 49 1185 49C1212.61 49 1235 71.3858 1235 99Z" fill="white"/>
<path d="M1302 85C1302 112.614 1279.61 135 1252 135C1224.39 135 1202 112.614 1202 85C1202 57.3858 1224.39 35 1252 35C1279.61 35 1302 57.3858 1302 85Z" fill="white"/>
<path d="M1243 33C1243 60.6142 1220.61 83 1193 83C1165.39 83 1143 60.6142 1143 33C1143 5.38576 1165.39 -17 1193 -17C1220.61 -17 1243 5.38576 1243 33Z" fill="white"/>
<path d="M1342 26C1342 53.6142 1319.61 76 1292 76C1264.39 76 1242 53.6142 1242 26C1242 -1.61424 1264.39 -24 1292 -24C1319.61 -24 1342 -1.61424 1342 26Z" fill="white"/>
<path d="M1440 30C1440 57.6142 1417.61 80 1390 80C1362.39 80 1340 57.6142 1340 30C1340 2.38576 1362.39 -20 1390 -20C1417.61 -20 1440 2.38576 1440 30Z" fill="white"/>
<path d="M1386 18C1386 45.6142 1363.61 68 1336 68C1308.39 68 1286 45.6142 1286 18C1286 -9.61424 1308.39 -32 1336 -32C1363.61 -32 1386 -9.61424 1386 18Z" fill="white"/>
<path d="M1514 43C1514 70.6142 1491.61 93 1464 93C1436.39 93 1414 70.6142 1414 43C1414 15.3858 1436.39 -7 1464 -7C1491.61 -7 1514 15.3858 1514 43Z" fill="white"/>
<path d="M1596 26C1596 53.6142 1573.61 76 1546 76C1518.39 76 1496 53.6142 1496 26C1496 -1.61424 1518.39 -24 1546 -24C1573.61 -24 1596 -1.61424 1596 26Z" fill="white"/>
<path d="M249 43C249 70.6142 226.614 93 199 93C171.386 93 149 70.6142 149 43C149 15.3858 171.386 -7 199 -7C226.614 -7 249 15.3858 249 43Z" fill="white"/>
<path d="M136 33C136 60.6142 113.614 83 86 83C58.3858 83 36 60.6142 36 33C36 5.38576 58.3858 -17 86 -17C113.614 -17 136 5.38576 136 33Z" fill="white"/>
<path d="M174 21C174 48.6142 151.614 71 124 71C96.3858 71 74 48.6142 74 21C74 -6.61424 96.3858 -29 124 -29C151.614 -29 174 -6.61424 174 21Z" fill="white"/>
<path d="M1049 -7C1049 20.6142 1026.61 43 999 43C971.386 43 949 20.6142 949 -7C949 -34.6142 971.386 -57 999 -57C1026.61 -57 1049 -34.6142 1049 -7Z" fill="white"/>
<path d="M1650 28C1650 55.6142 1627.61 78 1600 78C1572.39 78 1550 55.6142 1550 28C1550 0.385763 1572.39 -22 1600 -22C1627.61 -22 1650 0.385763 1650 28Z" fill="white"/>
<path d="M1711 18C1711 45.6142 1688.61 68 1661 68C1633.39 68 1611 45.6142 1611 18C1611 -9.61424 1633.39 -32 1661 -32C1688.61 -32 1711 -9.61424 1711 18Z" fill="white"/>
<path d="M1781 6C1781 33.6142 1758.61 56 1731 56C1703.39 56 1681 33.6142 1681 6C1681 -21.6142 1703.39 -44 1731 -44C1758.61 -44 1781 -21.6142 1781 6Z" fill="white"/>
<path d="M1902 36C1902 63.6142 1879.61 86 1852 86C1824.39 86 1802 63.6142 1802 36C1802 8.38576 1824.39 -14 1852 -14C1879.61 -14 1902 8.38576 1902 36Z" fill="white"/>
<path d="M1948 28C1948 55.6142 1925.61 78 1898 78C1870.39 78 1848 55.6142 1848 28C1848 0.385763 1870.39 -22 1898 -22C1925.61 -22 1948 0.385763 1948 28Z" fill="white"/>
<path d="M1845 -7C1845 20.6142 1822.61 43 1795 43C1767.39 43 1745 20.6142 1745 -7C1745 -34.6142 1767.39 -57 1795 -57C1822.61 -57 1845 -34.6142 1845 -7Z" fill="white"/>
<path d="M49 12C49 39.6142 26.6142 62 -1 62C-28.6142 62 -51 39.6142 -51 12C-51 -15.6142 -28.6142 -38 -1 -38C26.6142 -38 49 -15.6142 49 12Z" fill="white"/>
<path d="M1280 -2C1280 25.6142 1257.61 48 1230 48C1202.39 48 1180 25.6142 1180 -2C1180 -29.6142 1202.39 -52 1230 -52C1257.61 -52 1280 -29.6142 1280 -2Z" fill="white"/>
<path d="M907 0C907 27.6142 884.614 50 857 50C829.386 50 807 27.6142 807 0C807 -27.6142 829.386 -50 857 -50C884.614 -50 907 -27.6142 907 0Z" fill="white"/>
<path d="M56 0.5C56 16.7924 34.5097 30 8 30C-18.5097 30 -40 16.7924 -40 0.5C-40 -15.7924 -18.5097 -29 8 -29C34.5097 -29 56 -15.7924 56 0.5Z" fill="white"/>
<path d="M108 -11.5C108 11.4198 91.4345 30 71 30C50.5655 30 34 11.4198 34 -11.5C34 -34.4198 50.5655 -53 71 -53C91.4345 -53 108 -34.4198 108 -11.5Z" fill="white"/>
<path d="M192 -12C192 15.6142 169.614 38 142 38C114.386 38 92 15.6142 92 -12C92 -39.6142 114.386 -62 142 -62C169.614 -62 192 -39.6142 192 -12Z" fill="white"/>
<path d="M261 -7C261 20.6142 238.614 43 211 43C183.386 43 161 20.6142 161 -7C161 -34.6142 183.386 -57 211 -57C238.614 -57 261 -34.6142 261 -7Z" fill="white"/>
<path d="M8 -12H1952V12H8V-12Z" fill="white"/>
<path d="M335 0C335 27.6142 312.614 50 285 50C257.386 50 235 27.6142 235 0C235 -27.6142 257.386 -50 285 -50C312.614 -50 335 -27.6142 335 0Z" stroke="black" stroke-opacity="0.29" stroke-width="6" mask="url(#path-1-outside-1_347_100)"/>
<path d="M405 36C405 63.6142 382.614 86 355 86C327.386 86 305 63.6142 305 36C305 8.38576 327.386 -14 355 -14C382.614 -14 405 8.38576 405 36Z" stroke="black" stroke-opacity="0.29" stroke-width="6" mask="url(#path-1-outside-1_347_100)"/>
<path d="M473 6C473 33.6142 450.614 56 423 56C395.386 56 373 33.6142 373 6C373 -21.6142 395.386 -44 423 -44C450.614 -44 473 -21.6142 473 6Z" stroke="black" stroke-opacity="0.29" stroke-width="6" mask="url(#path-1-outside-1_347_100)"/>
<path d="M552 21C552 48.6142 529.614 71 502 71C474.386 71 452 48.6142 452 21C452 -6.61424 474.386 -29 502 -29C529.614 -29 552 -6.61424 552 21Z" stroke="black" stroke-opacity="0.29" stroke-width="6" mask="url(#path-1-outside-1_347_100)"/>
<path d="M627 0C627 27.6142 604.614 50 577 50C549.386 50 527 27.6142 527 0C527 -27.6142 549.386 -50 577 -50C604.614 -50 627 -27.6142 627 0Z" stroke="black" stroke-opacity="0.29" stroke-width="6" mask="url(#path-1-outside-1_347_100)"/>
<path d="M699 6C699 33.6142 676.614 56 649 56C621.386 56 599 33.6142 599 6C599 -21.6142 621.386 -44 649 -44C676.614 -44 699 -21.6142 699 6Z" stroke="black" stroke-opacity="0.29" stroke-width="6" mask="url(#path-1-outside-1_347_100)"/>
<path d="M765 21C765 48.6142 742.614 71 715 71C687.386 71 665 48.6142 665 21C665 -6.61424 687.386 -29 715 -29C742.614 -29 765 -6.61424 765 21Z" stroke="black" stroke-opacity="0.29" stroke-width="6" mask="url(#path-1-outside-1_347_100)"/>
<path d="M826 16C826 43.6142 803.614 66 776 66C748.386 66 726 43.6142 726 16C726 -11.6142 748.386 -34 776 -34C803.614 -34 826 -11.6142 826 16Z" stroke="black" stroke-opacity="0.29" stroke-width="6" mask="url(#path-1-outside-1_347_100)"/>
<path d="M786 15C786 23.2843 783.761 30 781 30C778.239 30 776 23.2843 776 15C776 6.71573 778.239 0 781 0C783.761 0 786 6.71573 786 15Z" stroke="black" stroke-opacity="0.29" stroke-width="6" mask="url(#path-1-outside-1_347_100)"/>
<path d="M854 5C854 18.8071 841.24 30 825.5 30C809.76 30 797 18.8071 797 5C797 -8.80712 809.76 -20 825.5 -20C841.24 -20 854 -8.80712 854 5Z" stroke="black" stroke-opacity="0.29" stroke-width="6" mask="url(#path-1-outside-1_347_100)"/>
<path d="M981 36C981 63.6142 958.614 86 931 86C903.386 86 881 63.6142 881 36C881 8.38576 903.386 -14 931 -14C958.614 -14 981 8.38576 981 36Z" stroke="black" stroke-opacity="0.29" stroke-width="6" mask="url(#path-1-outside-1_347_100)"/>
<path d="M1036 58C1036 85.6142 1013.61 108 986 108C958.386 108 936 85.6142 936 58C936 30.3858 958.386 8 986 8C1013.61 8 1036 30.3858 1036 58Z" stroke="black" stroke-opacity="0.29" stroke-width="6" mask="url(#path-1-outside-1_347_100)"/>
<path d="M1085 62C1085 89.6142 1062.61 112 1035 112C1007.39 112 985 89.6142 985 62C985 34.3858 1007.39 12 1035 12C1062.61 12 1085 34.3858 1085 62Z" stroke="black" stroke-opacity="0.29" stroke-width="6" mask="url(#path-1-outside-1_347_100)"/>
<path d="M1132 21C1132 48.6142 1109.61 71 1082 71C1054.39 71 1032 48.6142 1032 21C1032 -6.61424 1054.39 -29 1082 -29C1109.61 -29 1132 -6.61424 1132 21Z" stroke="black" stroke-opacity="0.29" stroke-width="6" mask="url(#path-1-outside-1_347_100)"/>
<path d="M1181 40C1181 67.6142 1158.61 90 1131 90C1103.39 90 1081 67.6142 1081 40C1081 12.3858 1103.39 -10 1131 -10C1158.61 -10 1181 12.3858 1181 40Z" stroke="black" stroke-opacity="0.29" stroke-width="6" mask="url(#path-1-outside-1_347_100)"/>
<path d="M1235 99C1235 126.614 1212.61 149 1185 149C1157.39 149 1135 126.614 1135 99C1135 71.3858 1157.39 49 1185 49C1212.61 49 1235 71.3858 1235 99Z" stroke="black" stroke-opacity="0.29" stroke-width="6" mask="url(#path-1-outside-1_347_100)"/>
<path d="M1302 85C1302 112.614 1279.61 135 1252 135C1224.39 135 1202 112.614 1202 85C1202 57.3858 1224.39 35 1252 35C1279.61 35 1302 57.3858 1302 85Z" stroke="black" stroke-opacity="0.29" stroke-width="6" mask="url(#path-1-outside-1_347_100)"/>
<path d="M1243 33C1243 60.6142 1220.61 83 1193 83C1165.39 83 1143 60.6142 1143 33C1143 5.38576 1165.39 -17 1193 -17C1220.61 -17 1243 5.38576 1243 33Z" stroke="black" stroke-opacity="0.29" stroke-width="6" mask="url(#path-1-outside-1_347_100)"/>
<path d="M1342 26C1342 53.6142 1319.61 76 1292 76C1264.39 76 1242 53.6142 1242 26C1242 -1.61424 1264.39 -24 1292 -24C1319.61 -24 1342 -1.61424 1342 26Z" stroke="black" stroke-opacity="0.29" stroke-width="6" mask="url(#path-1-outside-1_347_100)"/>
<path d="M1440 30C1440 57.6142 1417.61 80 1390 80C1362.39 80 1340 57.6142 1340 30C1340 2.38576 1362.39 -20 1390 -20C1417.61 -20 1440 2.38576 1440 30Z" stroke="black" stroke-opacity="0.29" stroke-width="6" mask="url(#path-1-outside-1_347_100)"/>
<path d="M1386 18C1386 45.6142 1363.61 68 1336 68C1308.39 68 1286 45.6142 1286 18C1286 -9.61424 1308.39 -32 1336 -32C1363.61 -32 1386 -9.61424 1386 18Z" stroke="black" stroke-opacity="0.29" stroke-width="6" mask="url(#path-1-outside-1_347_100)"/>
<path d="M1514 43C1514 70.6142 1491.61 93 1464 93C1436.39 93 1414 70.6142 1414 43C1414 15.3858 1436.39 -7 1464 -7C1491.61 -7 1514 15.3858 1514 43Z" stroke="black" stroke-opacity="0.29" stroke-width="6" mask="url(#path-1-outside-1_347_100)"/>
<path d="M1596 26C1596 53.6142 1573.61 76 1546 76C1518.39 76 1496 53.6142 1496 26C1496 -1.61424 1518.39 -24 1546 -24C1573.61 -24 1596 -1.61424 1596 26Z" stroke="black" stroke-opacity="0.29" stroke-width="6" mask="url(#path-1-outside-1_347_100)"/>
<path d="M249 43C249 70.6142 226.614 93 199 93C171.386 93 149 70.6142 149 43C149 15.3858 171.386 -7 199 -7C226.614 -7 249 15.3858 249 43Z" stroke="black" stroke-opacity="0.29" stroke-width="6" mask="url(#path-1-outside-1_347_100)"/>
<path d="M136 33C136 60.6142 113.614 83 86 83C58.3858 83 36 60.6142 36 33C36 5.38576 58.3858 -17 86 -17C113.614 -17 136 5.38576 136 33Z" stroke="black" stroke-opacity="0.29" stroke-width="6" mask="url(#path-1-outside-1_347_100)"/>
<path d="M174 21C174 48.6142 151.614 71 124 71C96.3858 71 74 48.6142 74 21C74 -6.61424 96.3858 -29 124 -29C151.614 -29 174 -6.61424 174 21Z" stroke="black" stroke-opacity="0.29" stroke-width="6" mask="url(#path-1-outside-1_347_100)"/>
<path d="M1049 -7C1049 20.6142 1026.61 43 999 43C971.386 43 949 20.6142 949 -7C949 -34.6142 971.386 -57 999 -57C1026.61 -57 1049 -34.6142 1049 -7Z" stroke="black" stroke-opacity="0.29" stroke-width="6" mask="url(#path-1-outside-1_347_100)"/>
<path d="M1650 28C1650 55.6142 1627.61 78 1600 78C1572.39 78 1550 55.6142 1550 28C1550 0.385763 1572.39 -22 1600 -22C1627.61 -22 1650 0.385763 1650 28Z" stroke="black" stroke-opacity="0.29" stroke-width="6" mask="url(#path-1-outside-1_347_100)"/>
<path d="M1711 18C1711 45.6142 1688.61 68 1661 68C1633.39 68 1611 45.6142 1611 18C1611 -9.61424 1633.39 -32 1661 -32C1688.61 -32 1711 -9.61424 1711 18Z" stroke="black" stroke-opacity="0.29" stroke-width="6" mask="url(#path-1-outside-1_347_100)"/>
<path d="M1781 6C1781 33.6142 1758.61 56 1731 56C1703.39 56 1681 33.6142 1681 6C1681 -21.6142 1703.39 -44 1731 -44C1758.61 -44 1781 -21.6142 1781 6Z" stroke="black" stroke-opacity="0.29" stroke-width="6" mask="url(#path-1-outside-1_347_100)"/>
<path d="M1902 36C1902 63.6142 1879.61 86 1852 86C1824.39 86 1802 63.6142 1802 36C1802 8.38576 1824.39 -14 1852 -14C1879.61 -14 1902 8.38576 1902 36Z" stroke="black" stroke-opacity="0.29" stroke-width="6" mask="url(#path-1-outside-1_347_100)"/>
<path d="M1948 28C1948 55.6142 1925.61 78 1898 78C1870.39 78 1848 55.6142 1848 28C1848 0.385763 1870.39 -22 1898 -22C1925.61 -22 1948 0.385763 1948 28Z" stroke="black" stroke-opacity="0.29" stroke-width="6" mask="url(#path-1-outside-1_347_100)"/>
<path d="M1845 -7C1845 20.6142 1822.61 43 1795 43C1767.39 43 1745 20.6142 1745 -7C1745 -34.6142 1767.39 -57 1795 -57C1822.61 -57 1845 -34.6142 1845 -7Z" stroke="black" stroke-opacity="0.29" stroke-width="6" mask="url(#path-1-outside-1_347_100)"/>
<path d="M49 12C49 39.6142 26.6142 62 -1 62C-28.6142 62 -51 39.6142 -51 12C-51 -15.6142 -28.6142 -38 -1 -38C26.6142 -38 49 -15.6142 49 12Z" stroke="black" stroke-opacity="0.29" stroke-width="6" mask="url(#path-1-outside-1_347_100)"/>
<path d="M1280 -2C1280 25.6142 1257.61 48 1230 48C1202.39 48 1180 25.6142 1180 -2C1180 -29.6142 1202.39 -52 1230 -52C1257.61 -52 1280 -29.6142 1280 -2Z" stroke="black" stroke-opacity="0.29" stroke-width="6" mask="url(#path-1-outside-1_347_100)"/>
<path d="M907 0C907 27.6142 884.614 50 857 50C829.386 50 807 27.6142 807 0C807 -27.6142 829.386 -50 857 -50C884.614 -50 907 -27.6142 907 0Z" stroke="black" stroke-opacity="0.29" stroke-width="6" mask="url(#path-1-outside-1_347_100)"/>
<path d="M56 0.5C56 16.7924 34.5097 30 8 30C-18.5097 30 -40 16.7924 -40 0.5C-40 -15.7924 -18.5097 -29 8 -29C34.5097 -29 56 -15.7924 56 0.5Z" stroke="black" stroke-opacity="0.29" stroke-width="6" mask="url(#path-1-outside-1_347_100)"/>
<path d="M108 -11.5C108 11.4198 91.4345 30 71 30C50.5655 30 34 11.4198 34 -11.5C34 -34.4198 50.5655 -53 71 -53C91.4345 -53 108 -34.4198 108 -11.5Z" stroke="black" stroke-opacity="0.29" stroke-width="6" mask="url(#path-1-outside-1_347_100)"/>
<path d="M192 -12C192 15.6142 169.614 38 142 38C114.386 38 92 15.6142 92 -12C92 -39.6142 114.386 -62 142 -62C169.614 -62 192 -39.6142 192 -12Z" stroke="black" stroke-opacity="0.29" stroke-width="6" mask="url(#path-1-outside-1_347_100)"/>
<path d="M261 -7C261 20.6142 238.614 43 211 43C183.386 43 161 20.6142 161 -7C161 -34.6142 183.386 -57 211 -57C238.614 -57 261 -34.6142 261 -7Z" stroke="black" stroke-opacity="0.29" stroke-width="6" mask="url(#path-1-outside-1_347_100)"/>
<path d="M8 -12H1952V12H8V-12Z" stroke="black" stroke-opacity="0.29" stroke-width="6" mask="url(#path-1-outside-1_347_100)"/>
</svg>
